<svg width="187" height="70" viewBox="0 0 187 70" fill="none" xmlns="http://www.w3.org/2000/svg">
<path d="M4.88281 12.4884H9.25781L17.4805 34.422L25.6836 12.4884H30.0586L19.1992 40.9259H15.7227L4.88281 12.4884ZM2.89062 12.4884H7.05078L7.77344 31.4728V40.9259H2.89062V12.4884ZM27.8906 12.4884H32.0703V40.9259H27.168V31.4728L27.8906 12.4884ZM49.3359 36.6876V26.6095C49.3359 25.8543 49.1992 25.2032 48.9258 24.6564C48.6523 24.1095 48.2357 23.6863 47.6758 23.3868C47.1289 23.0874 46.4388 22.9376 45.6055 22.9376C44.8372 22.9376 44.1732 23.0678 43.6133 23.3282C43.0534 23.5887 42.6172 23.9402 42.3047 24.3829C41.9922 24.8256 41.8359 25.3269 41.8359 25.8868H37.1484C37.1484 25.0535 37.3503 24.2462 37.7539 23.465C38.1576 22.6837 38.7435 21.9871 39.5117 21.3751C40.2799 20.7631 41.1979 20.2814 42.2656 19.9298C43.3333 19.5782 44.5312 19.4025 45.8594 19.4025C47.4479 19.4025 48.8542 19.6694 50.0781 20.2032C51.3151 20.7371 52.2852 21.5444 52.9883 22.6251C53.7044 23.6928 54.0625 25.034 54.0625 26.6486V36.0431C54.0625 37.0066 54.1276 37.8725 54.2578 38.6407C54.401 39.396 54.6029 40.0535 54.8633 40.6134V40.9259H50.0391C49.8177 40.4181 49.6419 39.7736 49.5117 38.9923C49.3945 38.198 49.3359 37.4298 49.3359 36.6876ZM50.0195 28.0743L50.0586 30.9845H46.6797C45.8073 30.9845 45.0391 31.0691 44.375 31.2384C43.7109 31.3947 43.1576 31.629 42.7148 31.9415C42.2721 32.254 41.9401 32.6316 41.7188 33.0743C41.4974 33.517 41.3867 34.0184 41.3867 34.5782C41.3867 35.1381 41.5169 35.6525 41.7773 36.1212C42.0378 36.5769 42.4154 36.935 42.9102 37.1954C43.418 37.4559 44.0299 37.5861 44.7461 37.5861C45.7096 37.5861 46.5495 37.3907 47.2656 37.0001C47.9948 36.5965 48.5677 36.1082 48.9844 35.5353C49.401 34.9493 49.6224 34.396 49.6484 33.8751L51.1719 35.965C51.0156 36.4988 50.7487 37.0717 50.3711 37.6837C49.9935 38.2957 49.4987 38.8816 48.8867 39.4415C48.2878 39.9884 47.5651 40.4376 46.7188 40.7892C45.8854 41.1407 44.9219 41.3165 43.8281 41.3165C42.4479 41.3165 41.2174 41.0431 40.1367 40.4962C39.056 39.9363 38.2096 39.1876 37.5977 38.2501C36.9857 37.2996 36.6797 36.2254 36.6797 35.0275C36.6797 33.9077 36.888 32.9181 37.3047 32.0587C37.7344 31.1863 38.3594 30.4572 39.1797 29.8712C40.013 29.2853 41.0286 28.8426 42.2266 28.5431C43.4245 28.2306 44.7917 28.0743 46.3281 28.0743H50.0195ZM118.477 19.7931V23.2306H106.562V19.7931H118.477ZM110 14.6173H114.707V35.0861C114.707 35.7371 114.798 36.2384 114.98 36.59C115.176 36.9285 115.443 37.1564 115.781 37.2736C116.12 37.3907 116.517 37.4493 116.973 37.4493C117.298 37.4493 117.611 37.4298 117.91 37.3907C118.21 37.3517 118.451 37.3126 118.633 37.2736L118.652 40.8673C118.262 40.9845 117.806 41.0887 117.285 41.1798C116.777 41.271 116.191 41.3165 115.527 41.3165C114.447 41.3165 113.49 41.1277 112.656 40.7501C111.823 40.3595 111.172 39.728 110.703 38.8556C110.234 37.9832 110 36.8243 110 35.379V14.6173ZM131.426 41.3165C129.863 41.3165 128.451 41.0626 127.188 40.5548C125.938 40.034 124.87 39.3113 123.984 38.3868C123.112 37.4624 122.441 36.3751 121.973 35.1251C121.504 33.8751 121.27 32.5275 121.27 31.0822V30.3009C121.27 28.6473 121.51 27.1499 121.992 25.8087C122.474 24.4676 123.145 23.3217 124.004 22.3712C124.863 21.4077 125.879 20.672 127.051 20.1642C128.223 19.6564 129.492 19.4025 130.859 19.4025C132.37 19.4025 133.691 19.6564 134.824 20.1642C135.957 20.672 136.895 21.3881 137.637 22.3126C138.392 23.2241 138.952 24.3113 139.316 25.5743C139.694 26.8374 139.883 28.2306 139.883 29.754V31.7657H123.555V28.3868H135.234V28.0157C135.208 27.1694 135.039 26.3751 134.727 25.6329C134.427 24.8907 133.965 24.2918 133.34 23.8361C132.715 23.3803 131.882 23.1525 130.84 23.1525C130.059 23.1525 129.362 23.3217 128.75 23.6603C128.151 23.9858 127.65 24.4611 127.246 25.0861C126.842 25.7111 126.53 26.4663 126.309 27.3517C126.1 28.2241 125.996 29.2072 125.996 30.3009V31.0822C125.996 32.0066 126.12 32.866 126.367 33.6603C126.628 34.4415 127.005 35.1251 127.5 35.7111C127.995 36.297 128.594 36.7592 129.297 37.0978C130 37.4233 130.801 37.5861 131.699 37.5861C132.832 37.5861 133.841 37.3582 134.727 36.9025C135.612 36.4467 136.38 35.8022 137.031 34.9689L139.512 37.3712C139.056 38.0353 138.464 38.6733 137.734 39.2853C137.005 39.8842 136.113 40.3725 135.059 40.7501C134.017 41.1277 132.806 41.3165 131.426 41.3165ZM148.281 23.8165V40.9259H143.574V19.7931H148.066L148.281 23.8165ZM154.746 19.6564L154.707 24.0314C154.421 23.9793 154.108 23.9402 153.77 23.9142C153.444 23.8881 153.118 23.8751 152.793 23.8751C151.986 23.8751 151.276 23.9923 150.664 24.2267C150.052 24.448 149.538 24.7736 149.121 25.2032C148.717 25.6199 148.405 26.1277 148.184 26.7267C147.962 27.3256 147.832 27.9962 147.793 28.7384L146.719 28.8165C146.719 27.4884 146.849 26.2579 147.109 25.1251C147.37 23.9923 147.76 22.9962 148.281 22.1368C148.815 21.2775 149.479 20.6069 150.273 20.1251C151.081 19.6434 152.012 19.4025 153.066 19.4025C153.353 19.4025 153.659 19.4285 153.984 19.4806C154.323 19.5327 154.577 19.5913 154.746 19.6564Z" fill="white"/>
<path d="M105.733 56.297H108.174C108.096 57.228 107.836 58.0581 107.393 58.7872C106.95 59.5099 106.328 60.0795 105.528 60.4962C104.727 60.9129 103.753 61.1212 102.608 61.1212C101.729 61.1212 100.938 60.965 100.235 60.6525C99.5315 60.3335 98.9293 59.8842 98.4279 59.3048C97.9266 58.7189 97.5425 58.0125 97.2756 57.1857C97.0152 56.3588 96.885 55.4344 96.885 54.4122V53.2306C96.885 52.2085 97.0184 51.284 97.2854 50.4572C97.5588 49.6303 97.9494 48.924 98.4572 48.338C98.9651 47.7456 99.5738 47.2931 100.283 46.9806C101 46.6681 101.804 46.5118 102.696 46.5118C103.828 46.5118 104.785 46.7202 105.567 47.1368C106.348 47.5535 106.953 48.1297 107.383 48.8654C107.819 49.601 108.086 50.4441 108.184 51.3947H105.742C105.677 50.7827 105.534 50.2586 105.313 49.8224C105.098 49.3862 104.779 49.0542 104.356 48.8263C103.933 48.5919 103.379 48.4747 102.696 48.4747C102.136 48.4747 101.647 48.5789 101.231 48.7872C100.814 48.9956 100.466 49.3016 100.186 49.7052C99.9058 50.1088 99.6942 50.6069 99.551 51.1993C99.4143 51.7853 99.3459 52.4559 99.3459 53.2111V54.4122C99.3459 55.1284 99.4078 55.7794 99.5315 56.3654C99.6617 56.9448 99.857 57.4428 100.117 57.8595C100.384 58.2762 100.723 58.5984 101.133 58.8263C101.543 59.0542 102.035 59.1681 102.608 59.1681C103.304 59.1681 103.867 59.0574 104.297 58.8361C104.733 58.6147 105.062 58.2924 105.283 57.8693C105.511 57.4396 105.661 56.9155 105.733 56.297ZM116.524 58.4357V50.3595H118.887V60.9259H116.66L116.524 58.4357ZM116.856 56.2384L117.647 56.2189C117.647 56.9285 117.569 57.5828 117.412 58.1818C117.256 58.7742 117.015 59.2918 116.69 59.7345C116.364 60.1707 115.947 60.5125 115.44 60.7599C114.932 61.0008 114.323 61.1212 113.613 61.1212C113.099 61.1212 112.627 61.0463 112.197 60.8966C111.768 60.7469 111.397 60.5157 111.084 60.2032C110.778 59.8907 110.541 59.4838 110.371 58.9825C110.202 58.4812 110.117 57.8823 110.117 57.1857V50.3595H112.471V57.2052C112.471 57.5893 112.516 57.9116 112.608 58.172C112.699 58.4259 112.822 58.631 112.979 58.7872C113.135 58.9435 113.317 59.0542 113.526 59.1193C113.734 59.1844 113.955 59.2169 114.19 59.2169C114.86 59.2169 115.388 59.0867 115.772 58.8263C116.162 58.5594 116.439 58.2013 116.602 57.7521C116.771 57.3029 116.856 56.7983 116.856 56.2384ZM123.662 52.3712V60.9259H121.309V50.3595H123.555L123.662 52.3712ZM126.895 50.2911L126.875 52.4786C126.732 52.4526 126.576 52.4331 126.406 52.42C126.244 52.407 126.081 52.4005 125.918 52.4005C125.515 52.4005 125.16 52.4591 124.854 52.5763C124.548 52.687 124.291 52.8497 124.082 53.0646C123.88 53.2729 123.724 53.5268 123.613 53.8263C123.503 54.1258 123.438 54.4611 123.418 54.8322L122.881 54.8712C122.881 54.2072 122.946 53.5919 123.076 53.0255C123.207 52.4591 123.402 51.9611 123.662 51.5314C123.929 51.1017 124.261 50.7664 124.658 50.5255C125.062 50.2846 125.528 50.1642 126.055 50.1642C126.198 50.1642 126.351 50.1772 126.514 50.2032C126.683 50.2293 126.81 50.2586 126.895 50.2911ZM130.733 52.3712V60.9259H128.379V50.3595H130.625L130.733 52.3712ZM133.965 50.2911L133.946 52.4786C133.802 52.4526 133.646 52.4331 133.477 52.42C133.314 52.407 133.151 52.4005 132.988 52.4005C132.585 52.4005 132.23 52.4591 131.924 52.5763C131.618 52.687 131.361 52.8497 131.153 53.0646C130.951 53.2729 130.794 53.5268 130.684 53.8263C130.573 54.1258 130.508 54.4611 130.488 54.8322L129.951 54.8712C129.951 54.2072 130.016 53.5919 130.147 53.0255C130.277 52.4591 130.472 51.9611 130.733 51.5314C131 51.1017 131.332 50.7664 131.729 50.5255C132.132 50.2846 132.598 50.1642 133.125 50.1642C133.268 50.1642 133.421 50.1772 133.584 50.2032C133.753 50.2293 133.88 50.2586 133.965 50.2911ZM139.903 61.1212C139.121 61.1212 138.415 60.9943 137.783 60.7404C137.158 60.4799 136.625 60.1186 136.182 59.6564C135.746 59.1941 135.41 58.6505 135.176 58.0255C134.942 57.4005 134.824 56.7267 134.824 56.004V55.6134C134.824 54.7866 134.945 54.0379 135.186 53.3673C135.427 52.6967 135.762 52.1238 136.192 51.6486C136.621 51.1668 137.129 50.799 137.715 50.545C138.301 50.2911 138.936 50.1642 139.619 50.1642C140.375 50.1642 141.035 50.2911 141.602 50.545C142.168 50.799 142.637 51.157 143.008 51.6193C143.386 52.075 143.666 52.6186 143.848 53.2501C144.037 53.8816 144.131 54.5782 144.131 55.34V56.3458H135.967V54.6564H141.807V54.4708C141.794 54.0476 141.709 53.6505 141.553 53.2794C141.403 52.9083 141.172 52.6088 140.86 52.381C140.547 52.1531 140.13 52.0392 139.61 52.0392C139.219 52.0392 138.871 52.1238 138.565 52.2931C138.265 52.4559 138.015 52.6935 137.813 53.006C137.611 53.3185 137.455 53.6961 137.344 54.1388C137.24 54.575 137.188 55.0665 137.188 55.6134V56.004C137.188 56.4663 137.25 56.896 137.373 57.2931C137.503 57.6837 137.692 58.0255 137.94 58.3185C138.187 58.6115 138.487 58.8426 138.838 59.0118C139.19 59.1746 139.59 59.256 140.039 59.256C140.606 59.256 141.11 59.142 141.553 58.9142C141.996 58.6863 142.38 58.3641 142.705 57.9474L143.946 59.1486C143.718 59.4806 143.421 59.7996 143.057 60.1056C142.692 60.4051 142.246 60.6492 141.719 60.838C141.198 61.0268 140.593 61.1212 139.903 61.1212ZM148.301 52.6154V60.9259H145.947V50.3595H148.164L148.301 52.6154ZM147.881 55.2521L147.119 55.2423C147.126 54.4936 147.23 53.8068 147.432 53.1818C147.64 52.5568 147.927 52.0197 148.291 51.5704C148.662 51.1212 149.105 50.7762 149.619 50.5353C150.134 50.2879 150.707 50.1642 151.338 50.1642C151.846 50.1642 152.305 50.2358 152.715 50.379C153.132 50.5157 153.487 50.7404 153.78 51.0529C154.079 51.3654 154.307 51.7723 154.463 52.2736C154.619 52.7684 154.697 53.3771 154.697 54.0997V60.9259H152.334V54.09C152.334 53.5822 152.259 53.1818 152.11 52.8888C151.966 52.5893 151.755 52.3777 151.475 52.254C151.201 52.1238 150.86 52.0587 150.449 52.0587C150.046 52.0587 149.684 52.1434 149.365 52.3126C149.046 52.4819 148.776 52.713 148.555 53.006C148.34 53.299 148.174 53.6375 148.057 54.0216C147.94 54.4057 147.881 54.8159 147.881 55.2521ZM161.416 59.2462C161.8 59.2462 162.145 59.1713 162.451 59.0216C162.764 58.8654 163.015 58.6505 163.203 58.3771C163.399 58.1036 163.506 57.7879 163.526 57.4298H165.742C165.729 58.1134 165.528 58.7351 165.137 59.295C164.746 59.8549 164.229 60.3009 163.584 60.6329C162.94 60.9585 162.227 61.1212 161.446 61.1212C160.638 61.1212 159.935 60.9845 159.336 60.7111C158.737 60.4311 158.239 60.047 157.842 59.5587C157.445 59.0704 157.145 58.5073 156.944 57.8693C156.748 57.2312 156.651 56.5476 156.651 55.8185V55.4767C156.651 54.7475 156.748 54.0639 156.944 53.4259C157.145 52.7814 157.445 52.215 157.842 51.7267C158.239 51.2384 158.737 50.8575 159.336 50.5841C159.935 50.3042 160.635 50.1642 161.436 50.1642C162.282 50.1642 163.024 50.3335 163.662 50.672C164.3 51.004 164.802 51.4695 165.166 52.0685C165.537 52.6609 165.729 53.351 165.742 54.1388H163.526C163.506 53.7482 163.408 53.3966 163.233 53.0841C163.063 52.7651 162.822 52.5112 162.51 52.3224C162.204 52.1336 161.836 52.0392 161.406 52.0392C160.931 52.0392 160.537 52.1368 160.225 52.3322C159.912 52.521 159.668 52.7814 159.492 53.1134C159.317 53.4389 159.19 53.8068 159.112 54.2169C159.04 54.6206 159.004 55.0405 159.004 55.4767V55.8185C159.004 56.2547 159.04 56.6779 159.112 57.088C159.183 57.4982 159.307 57.866 159.483 58.1915C159.665 58.5105 159.912 58.7677 160.225 58.963C160.537 59.1518 160.934 59.2462 161.416 59.2462ZM170.615 59.7736L173.487 50.3595H176.006L171.768 62.5372C171.67 62.7976 171.543 63.0809 171.387 63.3868C171.231 63.6928 171.026 63.9825 170.772 64.256C170.524 64.5359 170.215 64.7605 169.844 64.9298C169.473 65.1056 169.024 65.1935 168.496 65.1935C168.288 65.1935 168.086 65.174 167.891 65.1349C167.702 65.1023 167.523 65.0665 167.354 65.0275L167.344 63.2306C167.409 63.2371 167.487 63.2436 167.578 63.2501C167.676 63.2566 167.754 63.2599 167.813 63.2599C168.203 63.2599 168.529 63.2111 168.789 63.1134C169.05 63.0223 169.261 62.8725 169.424 62.6642C169.593 62.4559 169.737 62.1759 169.854 61.8243L170.615 59.7736ZM168.994 50.3595L171.504 58.2697L171.924 60.7501L170.293 61.17L166.455 50.3595H168.994Z" fill="#E1E1E6"/>
<path d="M82.3333 2V57" stroke="#00B37E" stroke-width="4" stroke-linecap="round" stroke-linejoin="round"/>
<path d="M94.8334 12H76.0834C73.7627 12 71.5371 12.9218 69.8962 14.5628C68.2552 16.2037 67.3334 18.4293 67.3334 20.75C67.3334 23.0706 68.2552 25.2962 69.8962 26.9372C71.5371 28.5781 73.7627 29.5 76.0834 29.5H88.5834C90.904 29.5 93.1296 30.4218 94.7706 32.0628C96.4115 33.7037 97.3334 35.9293 97.3334 38.25C97.3334 40.5706 96.4115 42.7962 94.7706 44.4372C93.1296 46.0781 90.904 47 88.5834 47H67.3334" stroke="#00B37E" stroke-width="4" stroke-linecap="round" stroke-linejoin="round"/>
</svg>
